<?xml version="1.0" encoding="UTF-8" standalone="no"?>

<svg
   xmlns:dc="http://purl.org/dc/elements/1.1/"
   xmlns:cc="http://creativecommons.org/ns#"
   xmlns:rdf="http://www.w3.org/1999/02/22-rdf-syntax-ns#"
   xmlns:svg="http://www.w3.org/2000/svg"
   xmlns="http://www.w3.org/2000/svg"
   width="840"
   height="370">

  <polyline id="furnace"
     points="35,35 160,35 160,235 35,235"
     style="fill:white;stroke:black;stroke-width:3" />
  <g id="arrow_in">
    <line
       id="line_in"
       x1="160"
       y1="135"
       x2="310"
       y2="135"
       style="stroke:black;stroke-width:2" />
    <polygon
       id="arrowhead_in"
       points="300,140 300,130 316,135"
       style="fill:black;stroke:black;stroke-width:1px" />
  </g>
  <circle id="Working_Body"
     cx="420"
     cy="135"
     r="100"
     stroke="black"
     fill="white"
     stroke-width="2.5" />

  <g id="arrow_out">
    <line id="line_out"
       x1="520"
       y1="135"
       x2="670"
       y2="135"
       style="stroke:black;stroke-width:2" />
    <polygon id="arrowhead_out"
       points="660,140 660,130 676,135"
       style="fill:black;stroke:black;stroke-width:1px" />
  </g>
  
  <polyline id="cold_sink"
     points="805,35 680,35 680,235 805,235"
     style="fill:white;stroke:black;stroke-width:3" />
  <g id="arrow_down">
    <line id="line_down"
       x1="420"
       y1="235"
       x2="420"
       y2="329"
       style="stroke:black;stroke-width:2" />
    <polygon id="arrowhead_down"
       points="415,319 425,319 420,335"
       style="fill:black;stroke:black;stroke-width:1px" />
  </g>

  <path id="W"
     d="m 438.75781,299.85156 2.15625,-27.1875 c 0.0625,-0.79685 0.0937,-1.45309 0.0937,-1.96875 -1e-5,-0.82809 -0.19532,-1.43747 -0.58594,-1.82812 -0.375,-0.3906 -1.04688,-0.60935 -2.01562,-0.65625 l 0.35156,-0.86719 12.84375,0 -0.25781,0.86719 -0.63281,0 c -0.84377,3e-5 -1.53127,0.28128 -2.0625,0.84375 -0.51564,0.5469 -0.82814,1.57815 -0.9375,3.09375 l -1.24219,16.125 9.58594,-13.10157 0.23437,-3.02343 c 0.0625,-0.62497 0.0937,-1.12497 0.0937,-1.5 -2e-5,-0.7656 -0.21096,-1.35154 -0.63281,-1.75782 -0.40627,-0.40621 -1.08596,-0.63278 -2.03906,-0.67968 l 0.23437,-0.86719 12.9375,0 -0.25781,0.86719 c -1.14066,3e-5 -1.98441,0.28128 -2.53125,0.84375 -0.54691,0.5469 -0.88284,1.57815 -1.00781,3.09375 l -1.21875,16.125 9.23437,-12.70313 c 1.57809,-2.17185 2.55465,-3.64841 2.92969,-4.42969 0.26558,-0.53122 0.3984,-0.98434 0.39844,-1.35937 -4e-5,-0.35935 -0.17973,-0.67966 -0.53907,-0.96094 -0.34379,-0.29684 -1.01566,-0.49997 -2.01562,-0.60937 l 0.23437,-0.86719 8.48438,0 -0.21094,0.86719 c -0.76567,0.14065 -1.39848,0.40628 -1.89844,0.79687 -0.70317,0.54691 -1.61723,1.59378 -2.74218,3.14063 l -20.17969,27.70312 -1.38281,0 1.61718,-21.44531 -15.63281,21.44531 -1.40625,0"
     style="fill:black" />

  <g id="Q_C"
     style="fill:black">
    <path id="Q"
       d="m 589.24512,113.74152 -4.125,3.75 c 1.54686,-0.31251 2.81248,-0.46876 3.79687,-0.46875 1.35936,-10e-6 3.27342,0.32812 5.74219,0.98437 2.46873,0.65625 4.41404,0.98437 5.83594,0.98438 1.56247,-10e-6 3.00778,-0.28126 4.33593,-0.84375 0.8281,-0.34376 1.67966,-0.9297 2.55469,-1.75782 l 0.70313,0.65625 c -1.57816,1.92187 -3.43753,3.39062 -5.57813,4.40625 -2.14065,1.03124 -4.83596,1.54687 -8.08594,1.54688 -1.82814,-1e-5 -3.96095,-0.26564 -6.39843,-0.79688 -2.43751,-0.51563 -4.37501,-0.77344 -5.8125,-0.77343 -1.14063,-10e-6 -2.35938,0.17186 -3.65625,0.51562 l -0.44532,-0.58594 8.64844,-7.61718 c -2.03126,-0.34375 -3.58594,-0.89063 -4.66406,-1.64063 -1.46876,-1 -2.60938,-2.36718 -3.42188,-4.10156 -0.8125,-1.74999 -1.21875,-3.54687 -1.21875,-5.39063 0,-3.468733 0.99219,-6.960917 2.97657,-10.476559 1.99999,-3.531225 4.67186,-6.351535 8.01562,-8.460937 3.35936,-2.109344 6.68748,-3.16403 9.98438,-3.164063 1.90622,3.3e-5 3.72653,0.476595 5.46093,1.429688 1.73435,0.953155 3.0781,2.304716 4.03125,4.054687 0.9531,1.7344 1.42966,3.539086 1.42969,5.414063 -3e-5,2.796893 -0.67972,5.671891 -2.03906,8.625001 -1.35941,2.93751 -3.20315,5.50001 -5.53125,7.6875 -2.31252,2.1875 -4.64846,3.77344 -7.00781,4.75781 -1.59377,0.67188 -3.43752,1.09375 -5.53125,1.26563 m 8.41406,-31.335941 c -1.2344,3e-5 -2.28908,0.226592 -3.16406,0.679687 -0.8594,0.43753 -1.75783,1.179716 -2.69532,2.226563 -0.93751,1.046901 -1.89064,2.5469 -2.85937,4.5 -0.96876,1.937521 -1.88282,4.578143 -2.74219,7.921875 -0.84376,3.343766 -1.26563,6.132826 -1.26562,8.367186 -1e-5,1.90626 0.41405,3.35157 1.24218,4.33594 0.82812,0.96875 1.89062,1.45312 3.1875,1.45312 1.71874,0 3.17967,-0.57031 4.38282,-1.71093 2.3906,-2.26562 4.33591,-5.58593 5.83593,-9.96094 1.5156,-4.390609 2.27342,-8.296855 2.27344,-11.718751 -2e-5,-2.140599 -0.40627,-3.687472 -1.21875,-4.640625 -0.7969,-0.96872 -1.78908,-1.453095 -2.97656,-1.453125" />
    <path id="C"
       d="m 628.37312,101.48458 0.47227,7.02314 -0.47227,0 c -0.62972,-2.10235 -1.52856,-3.61565 -2.69653,-4.5399 -1.168,-0.92422 -2.56958,-1.38633 -4.20474,-1.38635 -1.37113,2e-5 -2.61021,0.35041 -3.71724,1.05119 -1.10706,0.69065 -1.98051,1.79769 -2.62035,3.32114 -0.6297,1.52347 -0.94455,3.41763 -0.94455,5.6825 0,1.86878 0.29961,3.48873 0.89884,4.85983 0.59923,1.37112 1.49807,2.4223 2.69653,3.15356 1.2086,0.73126 2.58479,1.09689 4.12857,1.09689 1.34063,0 2.52385,-0.28438 3.54966,-0.85313 1.02578,-0.57892 2.15314,-1.72151 3.38208,-3.42779 l 0.47227,0.30469 c -1.03597,1.83831 -2.24458,3.18404 -3.62583,4.03717 -1.38129,0.85314 -3.02154,1.27971 -4.92077,1.27971 -3.42272,0 -6.07353,-1.26955 -7.95246,-3.80865 -1.40158,-1.88909 -2.10237,-4.11333 -2.10237,-6.67275 0,-2.06174 0.46211,-3.9559 1.38634,-5.6825 0.92423,-1.72657 2.19378,-3.06214 3.80865,-4.0067 1.62502,-0.95468 3.39731,-1.43203 5.31687,-1.43205 1.49298,2e-5 2.96566,0.36565 4.41803,1.09689 0.42656,0.22346 0.73125,0.33518 0.91408,0.33516 0.27421,2e-5 0.51288,-0.0965 0.71603,-0.28946 0.26404,-0.2742 0.45194,-0.65506 0.56368,-1.14259 l 0.53321,0" />
  </g>
  <g id="Q_H"
     style="fill:black" >
    <path id="Q"
       d="m 231.11653,113.82624 -4.125,3.75 c 1.54686,-0.3125 2.81249,-0.46875 3.79688,-0.46875 1.35936,0 3.27342,0.32812 5.74218,0.98438 2.46873,0.65624 4.41404,0.98436 5.83594,0.98437 1.56247,-1e-5 3.00779,-0.28126 4.33594,-0.84375 0.82809,-0.34375 1.67965,-0.92969 2.55469,-1.75781 l 0.70312,0.65625 c -1.57816,1.92187 -3.43753,3.39062 -5.57812,4.40625 -2.14065,1.03124 -4.83596,1.54686 -8.08594,1.54687 -1.82814,-1e-5 -3.96095,-0.26563 -6.39844,-0.79687 -2.43751,-0.51564 -4.37501,-0.77345 -5.8125,-0.77344 -1.14063,-1e-5 -2.35938,0.17187 -3.65625,0.51563 l -0.44531,-0.58594 8.64844,-7.61719 c -2.03126,-0.34375 -3.58595,-0.89062 -4.66407,-1.64062 -1.46875,-1 -2.60938,-2.36719 -3.42187,-4.10157 -0.8125,-1.74999 -1.21875,-3.54686 -1.21875,-5.39062 0,-3.468738 0.99218,-6.960922 2.97656,-10.476564 1.99999,-3.531226 4.67187,-6.351536 8.01563,-8.460938 3.35935,-2.109344 6.68748,-3.16403 9.98437,-3.164062 1.90623,3.2e-5 3.72654,0.476594 5.46094,1.429687 1.73434,0.953155 3.07809,2.304716 4.03125,4.054688 0.95309,1.7344 1.42965,3.539086 1.42969,5.414062 -4e-5,2.796894 -0.67972,5.671891 -2.03907,8.624997 -1.3594,2.93751 -3.20315,5.50001 -5.53125,7.6875 -2.31252,2.18751 -4.64846,3.77344 -7.00781,4.75782 -1.59377,0.67187 -3.43752,1.09374 -5.53125,1.26562 m 8.41406,-31.335937 c -1.23439,3.1e-5 -2.28908,0.226593 -3.16406,0.679688 -0.85939,0.437529 -1.75783,1.179716 -2.69531,2.226562 -0.93752,1.046902 -1.89064,2.5469 -2.85938,4.5 -0.96876,1.937521 -1.88282,4.578144 -2.74218,7.921875 -0.84376,3.343762 -1.26564,6.132822 -1.26563,8.367192 -1e-5,1.90625 0.41405,3.35156 1.24219,4.33593 0.82811,0.96875 1.89061,1.45313 3.1875,1.45313 1.71873,0 3.17967,-0.57031 4.38281,-1.71094 2.39061,-2.26562 4.33592,-5.58593 5.83594,-9.96094 1.5156,-4.390605 2.27341,-8.296851 2.27344,-11.718747 -3e-5,-2.140598 -0.40628,-3.687472 -1.21875,-4.640625 -0.7969,-0.96872 -1.78909,-1.453094 -2.97657,-1.453125" />
    <path id="H"
       d="m 257.87404,111.62413 9.5978,0 0,-5.91102 c -2e-5,-1.05625 -0.066,-1.75196 -0.19805,-2.08714 -0.10158,-0.25389 -0.31487,-0.47225 -0.63986,-0.65509 -0.43674,-0.24373 -0.89885,-0.36561 -1.38635,-0.36563 l -0.73126,0 0,-0.56368 8.83607,0 0,0.56368 -0.73126,0 c -0.48753,2e-5 -0.94965,0.11682 -1.38635,0.3504 -0.32503,0.16252 -0.54847,0.41135 -0.67032,0.7465 -0.11174,0.32502 -0.1676,0.99534 -0.16758,2.01096 l 0,13.33027 c -2e-5,1.04611 0.066,1.73674 0.19805,2.0719 0.10154,0.25391 0.30975,0.47227 0.62461,0.65509 0.44687,0.24375 0.91406,0.36563 1.40159,0.36563 l 0.73126,0 0,0.56368 -8.83607,0 0,-0.56368 0.73126,0 c 0.84297,0 1.45743,-0.24883 1.84339,-0.7465 0.25389,-0.325 0.38085,-1.10704 0.38087,-2.34612 l 0,-6.29189 -9.5978,0 0,6.29189 c 0,1.04611 0.066,1.73674 0.19805,2.0719 0.10156,0.25391 0.31484,0.47227 0.63986,0.65509 0.43671,0.24375 0.89883,0.36563 1.38634,0.36563 l 0.7465,0 0,0.56368 -8.8513,0 0,-0.56368 0.73126,0 c 0.85314,0 1.47268,-0.24883 1.85862,-0.7465 0.24375,-0.325 0.36563,-1.10704 0.36563,-2.34612 l 0,-13.33027 c 0,-1.05625 -0.066,-1.75196 -0.19805,-2.08714 -0.10156,-0.25389 -0.30977,-0.47225 -0.62462,-0.65509 -0.44688,-0.24373 -0.91407,-0.36561 -1.40158,-0.36563 l -0.73126,0 0,-0.56368 8.8513,0 0,0.56368 -0.7465,0 c -0.48751,2e-5 -0.94963,0.11682 -1.38634,0.3504 -0.31486,0.16252 -0.53322,0.41135 -0.65509,0.7465 -0.12188,0.32502 -0.18282,0.99534 -0.18282,2.01096 l 0,5.91102" />
  </g>
  <g id="T_H"
     style="fill:#ff2d06">
    <path id="T"
       d="m 76.017044,115.38191 25.570316,0 -2.414066,8.55469 -0.84375,0 c 0.03122,-0.4531 0.04685,-0.85154 0.04687,-1.19531 -3e-5,-1.62498 -0.476592,-2.88279 -1.429687,-3.77344 -0.953153,-0.90622 -2.562526,-1.42185 -4.828125,-1.54688 l -7.078125,23.92969 c -0.390642,1.32813 -0.585954,2.31251 -0.585938,2.95313 -1.6e-5,0.59375 0.242171,1.07031 0.726563,1.42968 0.484357,0.34376 1.468731,0.53126 2.953125,0.5625 l -0.210938,0.86719 -15.773437,0 0.28125,-0.86719 c 1.609369,10e-6 2.781243,-0.29687 3.515625,-0.89062 0.734366,-0.60937 1.406241,-1.96093 2.015625,-4.05469 l 7.078125,-23.92969 c -2.437515,0.0782 -4.476575,0.60941 -6.117188,1.59375 -1.640634,0.98441 -3.140632,2.62503 -4.5,4.92188 l -0.914062,0 2.507812,-8.55469" />
    <path id="H"
       d="m 104.08706,145.68762 9.59779,0 0,-5.91102 c -2e-5,-1.05625 -0.066,-1.75196 -0.19805,-2.08714 -0.10158,-0.25389 -0.31487,-0.47226 -0.63985,-0.65509 -0.43674,-0.24373 -0.89886,-0.36561 -1.38635,-0.36563 l -0.73126,0 0,-0.56368 8.83606,0 0,0.56368 -0.73126,0 c -0.48753,2e-5 -0.94964,0.11682 -1.38635,0.35039 -0.32502,0.16253 -0.54846,0.41136 -0.67032,0.7465 -0.11174,0.32502 -0.1676,0.99534 -0.16758,2.01097 l 0,13.33026 c -2e-5,1.04611 0.066,1.73675 0.19805,2.07191 0.10154,0.25391 0.30975,0.47227 0.62462,0.65508 0.44686,0.24376 0.91405,0.36563 1.40158,0.36563 l 0.73126,0 0,0.56368 -8.83606,0 0,-0.56368 0.73126,0 c 0.84296,0 1.45742,-0.24883 1.84338,-0.74649 0.2539,-0.32501 0.38085,-1.10705 0.38087,-2.34613 l 0,-6.29188 -9.59779,0 0,6.29188 c -10e-6,1.04611 0.066,1.73675 0.19805,2.07191 0.10155,0.25391 0.31484,0.47227 0.63985,0.65508 0.43672,0.24376 0.89883,0.36563 1.38635,0.36563 l 0.74649,0 0,0.56368 -8.851295,0 0,-0.56368 0.73126,0 c 0.853135,0 1.472675,-0.24883 1.858615,-0.74649 0.24375,-0.32501 0.36563,-1.10705 0.36564,-2.34613 l 0,-13.33026 c -1e-5,-1.05625 -0.066,-1.75196 -0.19805,-2.08714 -0.10157,-0.25389 -0.30978,-0.47226 -0.62462,-0.65509 -0.446886,-0.24373 -0.91408,-0.36561 -1.401585,-0.36563 l -0.73126,0 0,-0.56368 8.851295,0 0,0.56368 -0.74649,0 c -0.48752,2e-5 -0.94963,0.11682 -1.38635,0.35039 -0.31486,0.16253 -0.53322,0.41136 -0.65509,0.7465 -0.12188,0.32502 -0.18282,0.99534 -0.18281,2.01097 l 0,5.91102" />
  </g>
  <g id="T_C"
     style="fill:#0087f5">
    <path id="T"
       d="m 719.68683,115.3819 25.57031,0 -2.41406,8.55468 -0.84375,0 c 0.0312,-0.4531 0.0468,-0.85153 0.0469,-1.19531 -3e-5,-1.62497 -0.47659,-2.88278 -1.42968,-3.77344 -0.95316,-0.90622 -2.56253,-1.42184 -4.82813,-1.54687 l -7.07812,23.92969 c -0.39065,1.32813 -0.58596,2.3125 -0.58594,2.95312 -2e-5,0.59375 0.24217,1.07032 0.72656,1.42969 0.48436,0.34375 1.46873,0.53125 2.95313,0.5625 l -0.21094,0.86719 -15.77344,0 0.28125,-0.86719 c 1.60937,0 2.78124,-0.29687 3.51563,-0.89063 0.73436,-0.60937 1.40624,-1.96093 2.01562,-4.05468 l 7.07813,-23.92969 c -2.43752,0.0782 -4.47658,0.6094 -6.11719,1.59375 -1.64064,0.9844 -3.14063,2.62502 -4.5,4.92187 l -0.91406,0 2.50781,-8.55468" />
    <path id="C"
       d="m 760.12733,135.63277 0.47227,7.02315 -0.47227,0 c -0.62972,-2.10236 -1.52856,-3.61566 -2.69652,-4.53991 -1.168,-0.92421 -2.56959,-1.38633 -4.20475,-1.38635 -1.37113,2e-5 -2.6102,0.35042 -3.71724,1.05119 -1.10706,0.69065 -1.9805,1.7977 -2.62035,3.32114 -0.6297,1.52347 -0.94455,3.41764 -0.94455,5.6825 0,1.86879 0.29961,3.48873 0.89885,4.85984 0.59922,1.37111 1.49806,2.4223 2.69652,3.15356 1.2086,0.73126 2.58479,1.09689 4.12857,1.09689 1.34063,0 2.52385,-0.28438 3.54966,-0.85314 1.02578,-0.57891 2.15314,-1.72151 3.38208,-3.42778 l 0.47227,0.30469 c -1.03597,1.83831 -2.24458,3.18403 -3.62583,4.03716 -1.38128,0.85314 -3.02154,1.27971 -4.92077,1.27971 -3.42271,0 -6.07353,-1.26955 -7.95246,-3.80865 -1.40158,-1.88908 -2.10237,-4.11333 -2.10237,-6.67275 0,-2.06173 0.46211,-3.9559 1.38635,-5.6825 0.92422,-1.72657 2.19377,-3.06213 3.80864,-4.0067 1.62502,-0.95468 3.39731,-1.43203 5.31688,-1.43205 1.49297,2e-5 2.96565,0.36565 4.41803,1.09689 0.42655,0.22346 0.73124,0.33518 0.91407,0.33516 0.27421,2e-5 0.51288,-0.0965 0.71603,-0.28945 0.26405,-0.27421 0.45194,-0.65507 0.56368,-1.1426 l 0.53321,0" />
  </g>
</svg>
